<svg t="1666497822496" class="icon" viewBox="0 0 1024 1024" version="1.1" xmlns="http://www.w3.org/2000/svg" p-id="4339" width="200" height="200"><path d="M778 763.29a204.55 204.55 0 0 0-3-27.37c-24.1 4.64-44.91 2.68-62.54-3.63-55.05-19.68-79.26-81.7-76.45-117.4 2.33-29.77 25.45-47.28 37.92-54.65q-9.36-8.79-19.29-16.86c-45.9 30.17-110 46.1-185.77 46.1S329 573.55 283.09 543.39a363.52 363.52 0 0 0-32.67 30.09c-27.81 28.94-50.88 62.49-66.75 97a279.44 279.44 0 0 0-17.84 50.71 209.25 209.25 0 0 0-6.25 49.25c0 29.62 7.27 53.78 22.21 73.9 12.8 17.2 31.76 31.63 56.42 43q3.12 1.44 6.36 2.8c49.93 21 123.3 31.28 224.31 31.28 48.31 0 89.08-2.23 124.64-6.8a17.58 17.58 0 0 1 19.63 14.94q21.74-3.42 41.54-8.37a17.54 17.54 0 0 1 11.83-21.49c5.09-1.55 10.06-3.2 14.81-4.93a17.57 17.57 0 0 1 22.3 10 199.56 199.56 0 0 0 31.52-17.16 17.57 17.57 0 0 1 2.64-24c27.18-23.07 40.37-53.54 40.37-93.13 0-2.38-0.04-4.77-0.16-7.19zM243.48 221.41A306 306 0 0 1 277 176.72a285.18 285.18 0 0 1 61.36-51.48C313 110 286.48 99 265.07 99a47.63 47.63 0 0 0-16.78 2.78c-15 5.6-19.23 38.05-11.37 86.77 1.82 11.31 4.13 22.45 6.56 32.86zM660.77 176.72a306.82 306.82 0 0 1 33.5 44.69c2.42-10.37 4.72-21.55 6.55-32.84 7.86-48.72 3.62-81.17-11.36-86.77-23.17-8.66-57.51 4-90 23.44a284.89 284.89 0 0 1 61.31 51.48z" fill="#FFFFFF" p-id="4340"></path><path d="M325.55 413.08a17.6 17.6 0 0 1-15.1 19.76l-66.27 8.85a142.15 142.15 0 0 0 39 57.51 157.41 157.41 0 0 0 14.39 11.48c0.79 0.56 1.59 1.11 2.4 1.66q6.65 4.54 14 8.62c39.27 21.87 92.43 33.35 155 33.35s115.68-11.48 155-33.35q7.32-4.08 14-8.62c0.81-0.55 1.61-1.1 2.39-1.66a156.21 156.21 0 0 0 14.4-11.48 142.34 142.34 0 0 0 38.95-57.48l-66.48-8.88A17.59 17.59 0 0 1 612 413.08a17.3 17.3 0 0 1 2.12-6.33c-111.47-62.89-140.37-228.31-147-283.66-6.67 54.91-35.19 218.31-144.61 282.22a17.57 17.57 0 0 1 3.04 7.77z" fill="#FFFFFF" p-id="4341"></path><path d="M703.63 904.75a17.57 17.57 0 0 0-22.3-10c-4.75 1.73-9.72 3.38-14.81 4.93a17.54 17.54 0 0 0-11.83 21.49c0 0.14 0.07 0.3 0.11 0.44a17.6 17.6 0 0 0 16.82 12.48 17.78 17.78 0 0 0 5.11-0.76c5.69-1.73 11.27-3.59 16.59-5.51a17.58 17.58 0 0 0 10.52-22.53c-0.07-0.17-0.13-0.36-0.21-0.54z" fill="#303030" p-id="4342"></path><path d="M980.11 375.35c-15.66-17.51-44.86-29.59-74.87-17.11-14.66 6.1-34.91 20.8-48.12 56.21-11.49 30.8-15.78 72.2-12.74 123 3.38 56.85 0.18 102.13-9.51 134.57-6.47 21.67-15.71 37.21-27.49 46.29-12.9-58.4-46.32-118.88-94.69-169.24A408.39 408.39 0 0 0 682.82 521a176.57 176.57 0 0 0 34.74-46.48 182.6 182.6 0 0 0 11.59-28l64.28 8.59a16.83 16.83 0 0 0 2.34 0.16 17.58 17.58 0 0 0 2.31-35L737 412.05a248 248 0 0 0 2.41-35q0-10.41-0.79-20.83l62.33-7.83a17.58 17.58 0 1 0-4.39-34.88l-62.76 7.88a299.87 299.87 0 0 0-15.72-52.7 609.93 609.93 0 0 0 17.41-74.11c11.48-70.75 0.15-113-33.69-125.71-28.91-10.81-65.8-4.07-109.65 20.05-10.34 5.68-20 11.78-28.73 17.67a239.75 239.75 0 0 0-189.07 0c-8.69-5.88-18.39-12-28.74-17.66C301.75 64.8 264.86 58.06 236 68.86c-33.83 12.68-45.17 55-33.68 125.71a608.28 608.28 0 0 0 17.4 74.11A302 302 0 0 0 204 321.42l-63-7.91a17.58 17.58 0 1 0-4.38 34.88l62.55 7.87q-0.79 10.38-0.8 20.79a248.94 248.94 0 0 0 2.4 35l-61.31 8.2a17.58 17.58 0 0 0 2.31 35 17.23 17.23 0 0 0 2.36-0.16l64.47-8.61a184.33 184.33 0 0 0 11.61 28.05A176.81 176.81 0 0 0 254.94 521a406.22 406.22 0 0 0-29.88 28.12c-63 65.61-100.64 148.36-100.64 221.36 0 71.12 35.83 122.28 106.49 152.06 55.09 23.21 130.71 34 238 34 49.82 0 92-2.32 129.11-7.08a17.57 17.57 0 0 0 15.19-19.68v-0.25a17.58 17.58 0 0 0-19.63-14.94c-35.56 4.57-76.33 6.8-124.64 6.8-101 0-174.38-10.24-224.31-31.28q-3.24-1.36-6.36-2.8c-24.66-11.32-43.62-25.75-56.42-43-14.94-20.12-22.21-44.28-22.21-73.9a209.25 209.25 0 0 1 6.25-49.25 279.44 279.44 0 0 1 17.84-50.71c15.87-34.54 38.94-68.09 66.75-97a363.52 363.52 0 0 1 32.67-30.09c45.9 30.16 110 46.09 185.79 46.09s139.87-15.93 185.77-46.1q9.9 8.05 19.29 16.86 6.87 6.43 13.39 13.24c27.8 28.94 50.88 62.49 66.76 97A276 276 0 0 1 773.46 728c0.57 2.66 1.08 5.31 1.55 7.95a204.55 204.55 0 0 1 3 27.37c0.11 2.42 0.15 4.81 0.15 7.18 0 39.59-13.19 70.06-40.37 93.13a17.57 17.57 0 0 0-2.64 24c0.2 0.27 0.4 0.53 0.62 0.79a17.58 17.58 0 0 0 24.78 2c35-29.75 52.78-70.09 52.78-119.94q0-7.25-0.5-14.62a79.14 79.14 0 0 0 8.73-4.63c21.35-13.08 37.14-36.24 46.92-68.83 10.94-36.43 14.63-85.88 11-147-4.68-78.43 10-132.52 39.29-144.7 14-5.82 28 0.11 35.13 8.08 3.14 3.52 7.77 10.57 3.46 18.33a17.58 17.58 0 0 0 30.74 17.07c10.53-18.98 7.47-41.53-7.99-58.83zM689.46 101.8c15 5.6 19.22 38.05 11.36 86.77-1.83 11.29-4.13 22.47-6.55 32.84a306.82 306.82 0 0 0-33.5-44.69 284.89 284.89 0 0 0-61.35-51.48c32.58-19.49 66.87-32.1 90.04-23.44z m-441.17 0a47.63 47.63 0 0 1 16.78-2.8c21.41 0 47.9 11 73.26 26.22a285.18 285.18 0 0 0-61.33 51.5 306 306 0 0 0-33.49 44.69c-2.43-10.37-4.74-21.55-6.56-32.84-7.89-48.72-3.64-81.17 11.34-86.77z m406.32 397.4a156.21 156.21 0 0 1-14.4 11.48c-0.78 0.56-1.58 1.11-2.39 1.66q-6.66 4.54-14 8.62c-39.29 21.87-92.44 33.35-155 33.35s-115.7-11.48-155-33.35q-7.32-4.08-14-8.62c-0.81-0.55-1.61-1.1-2.4-1.66a157.41 157.41 0 0 1-14.39-11.48 142.15 142.15 0 0 1-39-57.51l66.27-8.85a17.59 17.59 0 0 0-4.52-34.84l-70.17 9.38a212.66 212.66 0 0 1-2.1-30.31c0-5.46 0.19-10.94 0.57-16.41l75.17 9.45a18.32 18.32 0 0 0 2.21 0.13 17.58 17.58 0 0 0 2.17-35l-74.7-9.38a260.33 260.33 0 0 1 7.32-27.39 270.2 270.2 0 0 1 12.59-31.71 274.18 274.18 0 0 1 30.62-50.13q6.46-8.4 13.59-16.29a249 249 0 0 1 63-50.67 220.83 220.83 0 0 1 22.43-10.93q9.49-4 19.23-7a205.86 205.86 0 0 1 59.29-9.41h1.9a205.53 205.53 0 0 1 61.19 9.36q9.75 3 19.24 7a215.24 215.24 0 0 1 22.45 11 248.94 248.94 0 0 1 62.9 50.63q7.14 7.89 13.59 16.28a274.36 274.36 0 0 1 30.64 50.14 269 269 0 0 1 12.57 31.68 265.26 265.26 0 0 1 7.32 27.35l-74.9 9.43a17.58 17.58 0 0 0 2.16 35 18.6 18.6 0 0 0 2.22-0.13l75.39-9.47q0.55 8.22 0.56 16.43a211.29 211.29 0 0 1-2.1 30.33L631.74 398a17.57 17.57 0 0 0-17.64 8.77 17.3 17.3 0 0 0-2.12 6.33 17.59 17.59 0 0 0 15.1 19.76l66.48 8.88a142.34 142.34 0 0 1-38.95 57.46z" fill="#303030" p-id="4343"></path><path d="M467.16 122.33l-0.09 0.76c0-0.26-0.07-0.51-0.09-0.76z" fill="#FFFFFF" p-id="4344"></path><path d="M467.16 122.33l-0.09 0.76c0-0.26-0.07-0.51-0.09-0.76zM165.83 721.22a209.25 209.25 0 0 0-6.25 49.25c0 29.62 7.27 53.78 22.21 73.9 12.8 17.2 31.76 31.63 56.42 43 92.25-138.87-26.89-162.24-72.38-166.15zM773.46 728a276 276 0 0 0-19.37-57.46c-15.88-34.54-39-68.09-66.76-97q-6.52-6.81-13.39-13.24c-12.47 7.37-35.59 24.88-37.92 54.65-2.81 35.7 21.4 97.72 76.45 117.4 17.63 6.31 38.44 8.27 62.54 3.63-0.47-2.7-1.01-5.35-1.55-7.98z" fill="#FFA766" p-id="4345"></path><path d="M407.67 131.68q-9.74 3-19.23 7A220.83 220.83 0 0 0 366 149.63a249 249 0 0 0-63 50.67q-7.14 7.89-13.59 16.29a274.18 274.18 0 0 0-30.62 50.13 270.2 270.2 0 0 0-12.59 31.71 260.33 260.33 0 0 0-7.32 27.39l74.7 9.38a17.58 17.58 0 0 1-2.17 35 18.32 18.32 0 0 1-2.21-0.13l-75.17-9.45c-0.38 5.47-0.57 10.95-0.57 16.41a212.66 212.66 0 0 0 2.1 30.31l70.22-9.34a17.6 17.6 0 0 1 16.73 7.33C431.93 341.4 460.45 178 467.07 123.09c0-0.26-0.07-0.51-0.09-0.76a205.86 205.86 0 0 0-59.31 9.35zM704.23 377.05q0-8.21-0.56-16.43l-75.39 9.47a18.6 18.6 0 0 1-2.22 0.13 17.58 17.58 0 0 1-2.16-35l74.92-9.42a265.26 265.26 0 0 0-7.32-27.35 269 269 0 0 0-12.57-31.68 274.36 274.36 0 0 0-30.64-50.14q-6.46-8.4-13.59-16.28a248.94 248.94 0 0 0-62.9-50.63 215.24 215.24 0 0 0-22.45-11q-9.49-4-19.24-7a205.53 205.53 0 0 0-61.19-9.36h-1.72l-0.09 0.76c6.66 55.35 35.56 220.77 147 283.66a17.57 17.57 0 0 1 17.63-8.78l70.39 9.4a211.29 211.29 0 0 0 2.1-30.35z" fill="#FFA766" p-id="4346"></path><path d="M467.16 122.33l-0.09 0.76c0-0.26-0.07-0.51-0.09-0.76z" fill="#FFA766" p-id="4347"></path></svg>